<svg width="96" height="32" viewBox="0 0 255 161" preserveAspectRatio="none" fill="none" xmlns="http://www.w3.org/2000/svg">
    <path d="M21.9463 99.7156C20.8304 99.7156 19.892 99.3596 19.1311 98.6475C18.421 97.9829 18.0659 97.1284 18.0659 96.084V63.6129C18.1166 59.8626 19.055 56.492 20.8811 53.5013C22.7072 50.5105 25.1927 48.1606 28.3376 46.4516C31.4825 44.6951 35.0332 43.8169 38.9897 43.8169C42.9969 43.8169 46.573 44.6951 49.7179 46.4516C52.8628 48.1606 55.3483 50.5105 57.1744 53.5013C59.0512 56.492 59.9896 59.8626 59.9896 63.6129C59.9896 67.3632 59.1273 70.7337 57.4027 73.7245C55.7287 76.6678 53.4208 79.0177 50.4788 80.7741C47.5368 82.4831 44.2143 83.3376 40.5114 83.3376C37.5187 83.3376 34.7542 82.768 32.218 81.6286C29.7325 80.4418 27.6021 78.8515 25.8267 76.8577V96.084C25.8267 97.1284 25.4717 97.9829 24.7615 98.6475C24.0514 99.3596 23.113 99.7156 21.9463 99.7156ZM38.9897 76.9289C41.5767 76.9289 43.8846 76.3592 45.9136 75.2199C47.9426 74.0331 49.5404 72.4427 50.707 70.4489C51.9244 68.4076 52.5331 66.1289 52.5331 63.6129C52.5331 61.0494 51.9244 58.7707 50.707 56.7769C49.5404 54.7355 47.9426 53.1452 45.9136 52.0059C43.8846 50.8191 41.5767 50.2257 38.9897 50.2257C36.4535 50.2257 34.1455 50.8191 32.0658 52.0059C30.0369 53.1452 28.439 54.7355 27.2724 56.7769C26.1057 58.7707 25.5224 61.0494 25.5224 63.6129C25.5224 66.1289 26.1057 68.4076 27.2724 70.4489C28.439 72.4427 30.0369 74.0331 32.0658 75.2199C34.1455 76.3592 36.4535 76.9289 38.9897 76.9289Z" fill="#2ECC71"/>
    <path d="M123.56 100.141C123.053 100.141 122.444 99.9982 121.734 99.7134C119.502 98.764 118.894 97.2686 119.908 95.2273L143.114 46.1646C144.129 44.1707 145.727 43.6011 147.908 44.4556C150.191 45.3575 150.825 46.8529 149.81 48.9417L126.528 97.9332C125.919 99.4048 124.93 100.141 123.56 100.141ZM132.538 81.484C131.575 81.8638 130.662 81.9113 129.799 81.6264C128.988 81.2941 128.328 80.677 127.821 79.775L110.397 48.7993C109.89 47.8973 109.814 47.0428 110.169 46.2358C110.575 45.3813 111.26 44.7641 112.223 44.3844C113.187 44.0046 114.1 43.9808 114.962 44.3132C115.825 44.598 116.484 45.1914 116.941 46.0934L133.604 77.0691C134.111 77.9711 134.288 78.8493 134.136 79.7038C134.035 80.5108 133.502 81.1042 132.538 81.484Z" fill="#2ECC71"/>
    <path d="M175.147 83.3376C170.936 83.3376 167.183 82.5069 163.886 80.8453C160.639 79.1363 158.078 76.8102 156.201 73.8669C154.375 70.8761 153.462 67.4581 153.462 63.6129C153.462 59.7201 154.324 56.3021 156.049 53.3588C157.824 50.3681 160.259 48.0419 163.353 46.3804C166.447 44.6714 169.998 43.8169 174.005 43.8169C177.962 43.8169 181.36 44.6477 184.201 46.3092C187.041 47.9233 189.197 50.1782 190.668 53.074C192.19 55.9224 192.951 59.2217 192.951 62.972C192.951 63.874 192.621 64.6335 191.962 65.2507C191.302 65.8203 190.465 66.1052 189.451 66.1052H158.788V60.4085H189.223L186.103 62.4023C186.052 60.0287 185.545 57.9162 184.581 56.0648C183.618 54.1659 182.248 52.6705 180.473 51.5786C178.697 50.4868 176.541 49.9408 174.005 49.9408C171.114 49.9408 168.628 50.5342 166.549 51.721C164.52 52.9079 162.973 54.5457 161.908 56.6344C160.842 58.6757 160.31 61.0019 160.31 63.6129C160.31 66.2239 160.944 68.55 162.212 70.5913C163.48 72.6326 165.23 74.2467 167.462 75.4335C169.694 76.6203 172.255 77.2137 175.147 77.2137C176.719 77.2137 178.317 76.9526 179.94 76.4304C181.614 75.8607 182.958 75.2199 183.973 74.5078C184.733 73.9856 185.545 73.7245 186.407 73.7245C187.32 73.677 188.107 73.9144 188.766 74.4366C189.628 75.1487 190.085 75.932 190.136 76.7865C190.186 77.641 189.78 78.3768 188.918 78.9939C187.194 80.2757 185.038 81.3201 182.451 82.1271C179.915 82.9341 177.48 83.3376 175.147 83.3376Z" fill="#2ECC71"/>
    <path d="M209.285 79.5997C209.285 80.4981 208.938 81.2547 208.245 81.8694C207.552 82.5077 206.731 82.8269 205.782 82.8269H205.667C204.717 82.8269 203.896 82.5077 203.203 81.8694C202.51 81.2547 202.164 80.4981 202.164 79.5997V60.2015C202.164 55.7568 203.87 51.9623 207.283 48.8179C210.696 45.6735 214.814 44.1013 219.638 44.1013C224.436 44.1013 228.542 45.6735 231.955 48.8179C235.367 51.9623 237.074 55.7568 237.074 60.2015V79.5997C237.074 80.4981 236.727 81.2547 236.035 81.8694C235.367 82.5077 234.546 82.8269 233.571 82.8269H233.494C232.519 82.8269 231.685 82.5077 230.992 81.8694C230.3 81.2547 229.953 80.4981 229.953 79.5997V60.2015C229.953 57.5772 228.953 55.3313 226.951 53.4635C224.924 51.5958 222.486 50.662 219.638 50.662C216.764 50.662 214.314 51.5958 212.287 53.4635C210.285 55.3313 209.285 57.5772 209.285 60.2015L209.285 79.5997Z" fill="#2ECC71"/>
    <path d="M249.978 82.7546C248.862 82.7546 247.924 82.4223 247.163 81.7577C246.453 81.0456 246.098 80.1673 246.098 79.1229V47.4351C246.098 46.3433 246.453 45.465 247.163 44.8004C247.924 44.1358 248.862 43.8035 249.978 43.8035C251.145 43.8035 252.083 44.1358 252.793 44.8004C253.504 45.465 253.859 46.3433 253.859 47.4351V79.1229C253.859 80.1673 253.504 81.0456 252.793 81.7577C252.083 82.4223 251.145 82.7546 249.978 82.7546ZM249.978 37.4659C248.609 37.4659 247.417 37.0149 246.402 36.113C245.438 35.1635 244.957 34.0479 244.957 32.7662C244.957 31.4844 245.438 30.3926 246.402 29.4906C247.417 28.5411 248.609 28.0664 249.978 28.0664C251.348 28.0664 252.514 28.5411 253.478 29.4906C254.493 30.3926 255 31.4844 255 32.7662C255 34.0479 254.493 35.1635 253.478 36.113C252.514 37.0149 251.348 37.4659 249.978 37.4659Z" fill="#2ECC71"/>
    <path fill-rule="evenodd" clip-rule="evenodd" d="M85.0813 43.6135C89.0846 43.6135 92.6442 44.4824 95.76 46.2159C98.8757 47.9494 101.357 50.3102 103.21 53.3025C105.057 56.2905 105.981 59.6643 105.981 63.4153V79.2965C105.981 80.3391 105.628 81.2038 104.917 81.8946C104.211 82.5812 103.296 82.9245 102.182 82.9245C100.647 82.9165 99.2884 82.9165 97.4768 82.9165H88.8718H86.1544L83.8223 79.8819L87.4724 76.453L88.7676 76.2962C89.9089 76.0037 90.9822 75.5672 91.9966 74.9865C94.0255 73.8252 95.6196 72.2316 96.788 70.2141C97.9519 68.1966 98.5361 65.9291 98.5361 63.4157C98.5361 60.8515 97.9519 58.5585 96.788 56.541C95.6196 54.5236 94.0391 52.9342 92.0374 51.7686C90.0357 50.6073 87.7396 50.0266 85.1582 50.0266L84.8005 50.0691L87.1871 46.5173L83.8585 43.7581L85.0813 43.6135Z" fill="#2ECC71"/>
    <path fill-rule="evenodd" clip-rule="evenodd" d="M80.4257 44.1521L83.8222 46.9664L81.4718 50.4631L78.2021 51.7685C76.1505 52.934 74.5293 54.5107 73.3382 56.507C72.1472 58.499 71.5494 60.8005 71.5494 63.4156C71.5494 65.9289 72.1472 68.1965 73.3382 70.2139C74.5293 72.2314 76.137 73.825 78.1658 74.9864C79.1757 75.567 80.2672 76.0036 81.431 76.296L83.6954 76.5588L80.4347 79.6274L83.0931 83.0817L78.3647 82.2403C76.7117 81.8123 75.0999 81.4329 73.6416 80.5768C70.7251 78.8687 68.411 76.5164 66.6855 73.5283C64.9646 70.5361 64.0996 67.1665 64.0996 63.4156C64.0996 59.6137 65.028 56.2315 66.8757 53.2646C68.7234 50.2978 71.2324 47.9497 74.4025 46.2162C75.983 45.3473 77.6677 44.6988 79.4475 44.2665L80.4257 44.1521Z" fill="#FFD32E"/>
</svg>
